<svg width="11" height="21" viewBox="0 0 11 21" fill="#d23669" xmlns="http://www.w3.org/2000/svg">
<path style="fill: #d23669" fill-rule="evenodd" clip-rule="evenodd" d="M10.5853 1.00056L7.94678 0.995158C4.98299 0.995158 3.06747 2.9275 3.06747 5.91776V8.18806H0.414734C0.185512 8.18806 -0.000226021 8.37153 -0.000226021 8.59595V11.884C-0.000226021 12.1091 0.185624 12.2907 0.414734 12.2907H3.06724V20.5886C3.06724 20.8142 3.25276 20.9965 3.4822 20.9965H6.94313C7.17235 20.9965 7.35787 20.8142 7.35787 20.5886V12.2907H10.4596C10.6888 12.2907 10.8745 12.1091 10.8745 11.884L10.8758 8.59595C10.8758 8.48778 10.8318 8.38428 10.7541 8.3078C10.6762 8.23133 10.5708 8.18806 10.4607 8.18806H7.3582V6.26384C7.3582 5.33917 7.58251 4.86951 8.80748 4.86951L10.585 4.86912C10.814 4.86912 10.9995 4.68797 10.9995 4.46126V1.40842C10.9995 1.18325 10.8141 1.00056 10.5853 1.00056Z" fill="black"/>
<path style="fill: #d23669" fill-rule="evenodd" clip-rule="evenodd" d="M10.5853 1.00056L7.94678 0.995158C4.98299 0.995158 3.06747 2.9275 3.06747 5.91776V8.18806H0.414734C0.185512 8.18806 -0.000226021 8.37153 -0.000226021 8.59595V11.884C-0.000226021 12.1091 0.185624 12.2907 0.414734 12.2907H3.06724V20.5886C3.06724 20.8142 3.25276 20.9965 3.4822 20.9965H6.94313C7.17235 20.9965 7.35787 20.8142 7.35787 20.5886V12.2907H10.4596C10.6888 12.2907 10.8745 12.1091 10.8745 11.884L10.8758 8.59595C10.8758 8.48778 10.8318 8.38428 10.7541 8.3078C10.6762 8.23133 10.5708 8.18806 10.4607 8.18806H7.3582V6.26384C7.3582 5.33917 7.58251 4.86951 8.80748 4.86951L10.585 4.86912C10.814 4.86912 10.9995 4.68797 10.9995 4.46126V1.40842C10.9995 1.18325 10.8141 1.00056 10.5853 1.00056Z" fill="#4DA7FF"/>
</svg>
