<svg width="20" height="20" viewBox="0 0 20 20" fill="none" xmlns="http://www.w3.org/2000/svg">
<path fill-rule="evenodd" clip-rule="evenodd" d="M5.51909 -0.000586987H14.4805C17.5239 -0.000586987 20 2.47557 19.9999 5.51914V14.4806C19.9999 17.5238 17.5239 19.9996 14.4805 19.9996H5.51909C2.47575 19.9996 -5.80549e-05 17.5238 -5.80549e-05 14.4806V5.51914C-5.80549e-05 2.47557 2.47575 -0.000586987 5.51909 -0.000586987ZM14.4806 18.2252C16.5455 18.2252 18.2255 16.5451 18.2255 14.4806H18.2253V5.51914C18.2253 3.45392 16.5454 1.77416 14.4805 1.77416H5.51909C3.45422 1.77416 1.77435 3.45392 1.77435 5.51914V14.4806C1.77435 16.5451 3.45422 18.2252 5.51909 18.2252H14.4806ZM4.84641 9.99988C4.84641 7.15832 7.15823 4.84593 9.9999 4.84593C12.8416 4.84593 15.1534 7.15832 15.1534 9.99988C15.1534 12.8414 12.8416 15.1531 9.9999 15.1531C7.15823 15.1531 4.84641 12.8414 4.84641 9.99988ZM6.62093 9.99949C6.62093 11.8627 8.13681 13.3787 9.9999 13.3787C11.863 13.3787 13.3789 11.8627 13.3789 9.99949C13.3789 8.13667 11.8631 6.62068 9.9999 6.62068C8.1367 6.62068 6.62093 8.13667 6.62093 9.99949ZM14.4503 3.72235C14.6918 3.48019 15.0276 3.34152 15.3695 3.34152C15.7126 3.34152 16.0486 3.48019 16.2899 3.72235C16.5324 3.96376 16.6708 4.29977 16.6708 4.64314C16.6708 4.98457 16.5324 5.32099 16.2899 5.56355C16.0473 5.80496 15.7126 5.94438 15.3695 5.94438C15.0276 5.94438 14.6917 5.80496 14.4503 5.56355C14.2078 5.32099 14.0682 4.98496 14.0682 4.64314C14.0682 4.29977 14.2077 3.96376 14.4503 3.72235Z" fill="black"/>
<path fill-rule="evenodd" clip-rule="evenodd" d="M5.51909 -0.000586987H14.4805C17.5239 -0.000586987 20 2.47557 19.9999 5.51914V14.4806C19.9999 17.5238 17.5239 19.9996 14.4805 19.9996H5.51909C2.47575 19.9996 -5.80549e-05 17.5238 -5.80549e-05 14.4806V5.51914C-5.80549e-05 2.47557 2.47575 -0.000586987 5.51909 -0.000586987ZM14.4806 18.2252C16.5455 18.2252 18.2255 16.5451 18.2255 14.4806H18.2253V5.51914C18.2253 3.45392 16.5454 1.77416 14.4805 1.77416H5.51909C3.45422 1.77416 1.77435 3.45392 1.77435 5.51914V14.4806C1.77435 16.5451 3.45422 18.2252 5.51909 18.2252H14.4806ZM4.84641 9.99988C4.84641 7.15832 7.15823 4.84593 9.9999 4.84593C12.8416 4.84593 15.1534 7.15832 15.1534 9.99988C15.1534 12.8414 12.8416 15.1531 9.9999 15.1531C7.15823 15.1531 4.84641 12.8414 4.84641 9.99988ZM6.62093 9.99949C6.62093 11.8627 8.13681 13.3787 9.9999 13.3787C11.863 13.3787 13.3789 11.8627 13.3789 9.99949C13.3789 8.13667 11.8631 6.62068 9.9999 6.62068C8.1367 6.62068 6.62093 8.13667 6.62093 9.99949ZM14.4503 3.72235C14.6918 3.48019 15.0276 3.34152 15.3695 3.34152C15.7126 3.34152 16.0486 3.48019 16.2899 3.72235C16.5324 3.96376 16.6708 4.29977 16.6708 4.64314C16.6708 4.98457 16.5324 5.32099 16.2899 5.56355C16.0473 5.80496 15.7126 5.94438 15.3695 5.94438C15.0276 5.94438 14.6917 5.80496 14.4503 5.56355C14.2078 5.32099 14.0682 4.98496 14.0682 4.64314C14.0682 4.29977 14.2077 3.96376 14.4503 3.72235Z" fill="#4DA7FF"/>
</svg>
