<svg width="23" height="20" viewBox="0 0 23 20" fill="none" xmlns="http://www.w3.org/2000/svg">
<path fill-rule="evenodd" clip-rule="evenodd" d="M3.54983 0.00480604C4.20398 0.00480604 4.7169 0.22573 5.08918 0.664894C5.46213 1.10481 5.66182 1.6583 5.68805 2.32147C5.68805 2.97729 5.47895 3.53116 5.05815 3.97882C4.63622 4.42725 4.06058 4.65202 3.33125 4.65202H3.30595C2.59425 4.65202 2.03098 4.42725 1.61085 3.97882C1.19658 3.53116 0.986475 2.97729 0.986475 2.32147C0.986475 1.64788 1.21433 1.09438 1.67563 0.658712C2.13683 0.22342 2.76225 0.00480604 3.54983 0.00480604ZM1.26227 6.49206H5.75763V19.9853H1.26227V6.49206ZM22.0129 12.2493V19.9853H17.5184V12.7692C17.5184 11.8507 17.3421 11.115 16.9906 10.5561C16.6409 10.0003 16.0569 9.72372 15.2309 9.72372C14.6017 9.72372 14.0974 9.89288 13.7208 10.237C13.3438 10.5769 13.0699 10.9523 12.905 11.3668C12.8505 11.5162 12.8177 11.6812 12.7991 11.8654C12.7822 12.045 12.7737 12.2405 12.7737 12.4471V19.9865H8.2513C8.27075 17.703 8.28115 15.6081 8.28115 13.7097V11.3104V9.13201C8.28115 8.46728 8.27462 7.90067 8.26433 7.43216C8.25863 6.96521 8.2513 6.65235 8.2513 6.49206H12.7737V8.40394L12.7495 8.45879H12.7737V8.40394C12.9144 8.16795 13.0935 7.92346 13.3128 7.66584C13.5339 7.40822 13.7993 7.16836 14.1219 6.949C14.4415 6.72805 14.8267 6.5469 15.2777 6.40091C15.7315 6.25685 16.2482 6.185 16.8368 6.185C17.5681 6.185 18.2515 6.30552 18.889 6.54305C19.5247 6.78175 20.0713 7.15602 20.5353 7.66661C20.9976 8.17374 21.3595 8.80641 21.6228 9.56073C21.8844 10.3135 22.0129 11.21 22.0129 12.2493Z" fill="black"/>
<path fill-rule="evenodd" clip-rule="evenodd" d="M3.54983 0.00480604C4.20398 0.00480604 4.7169 0.22573 5.08918 0.664894C5.46213 1.10481 5.66182 1.6583 5.68805 2.32147C5.68805 2.97729 5.47895 3.53116 5.05815 3.97882C4.63622 4.42725 4.06058 4.65202 3.33125 4.65202H3.30595C2.59425 4.65202 2.03098 4.42725 1.61085 3.97882C1.19658 3.53116 0.986475 2.97729 0.986475 2.32147C0.986475 1.64788 1.21433 1.09438 1.67563 0.658712C2.13683 0.22342 2.76225 0.00480604 3.54983 0.00480604ZM1.26227 6.49206H5.75763V19.9853H1.26227V6.49206ZM22.0129 12.2493V19.9853H17.5184V12.7692C17.5184 11.8507 17.3421 11.115 16.9906 10.5561C16.6409 10.0003 16.0569 9.72372 15.2309 9.72372C14.6017 9.72372 14.0974 9.89288 13.7208 10.237C13.3438 10.5769 13.0699 10.9523 12.905 11.3668C12.8505 11.5162 12.8177 11.6812 12.7991 11.8654C12.7822 12.045 12.7737 12.2405 12.7737 12.4471V19.9865H8.2513C8.27075 17.703 8.28115 15.6081 8.28115 13.7097V11.3104V9.13201C8.28115 8.46728 8.27462 7.90067 8.26433 7.43216C8.25863 6.96521 8.2513 6.65235 8.2513 6.49206H12.7737V8.40394L12.7495 8.45879H12.7737V8.40394C12.9144 8.16795 13.0935 7.92346 13.3128 7.66584C13.5339 7.40822 13.7993 7.16836 14.1219 6.949C14.4415 6.72805 14.8267 6.5469 15.2777 6.40091C15.7315 6.25685 16.2482 6.185 16.8368 6.185C17.5681 6.185 18.2515 6.30552 18.889 6.54305C19.5247 6.78175 20.0713 7.15602 20.5353 7.66661C20.9976 8.17374 21.3595 8.80641 21.6228 9.56073C21.8844 10.3135 22.0129 11.21 22.0129 12.2493Z" fill="#4DA7FF"/>
</svg>
