<svg width="20" height="17" viewBox="0 0 20 17" fill="none" xmlns="http://www.w3.org/2000/svg">
<path style="fill: #d23669" fill-rule="evenodd" clip-rule="evenodd" d="M19.4483 1.29172C18.6546 1.75443 17.7758 2.09162 16.8411 2.27355C16.0929 1.4864 15.0273 0.996254 13.8468 0.996254C11.5804 0.996254 9.74345 2.80618 9.74345 5.03592C9.74345 5.35147 9.78007 5.66047 9.84953 5.95632C6.43999 5.78792 3.41657 4.17885 1.39291 1.73475C1.03952 2.32994 0.838108 3.02517 0.838108 3.76558C0.838108 5.16841 1.56321 6.40398 2.66277 7.12856C1.99029 7.10616 1.35802 6.92424 0.804574 6.62027V6.67163C0.804574 8.62871 2.21919 10.2609 4.09509 10.6348C3.75166 10.7244 3.38911 10.7762 3.01455 10.7762C2.7495 10.7762 2.49328 10.7491 2.24161 10.7016C2.76427 12.3065 4.279 13.4744 6.07378 13.5092C4.67005 14.5911 2.90022 15.2365 0.978523 15.2365C0.647116 15.2365 0.320723 15.2175 -0.000517964 15.182C1.81579 16.3264 3.9714 16.9958 6.28915 16.9958C13.8361 16.9958 17.9628 10.8407 17.9628 5.50134L17.9493 4.97799C18.7536 4.41099 19.4506 3.69838 19.9999 2.88959C19.2639 3.21133 18.4739 3.42839 17.644 3.52726C18.4913 3.02593 19.1407 2.23298 19.4483 1.29172Z" fill="black"/>
<path style="fill: #d23669"  fill-rule="evenodd" clip-rule="evenodd" d="M19.4483 1.29172C18.6546 1.75443 17.7758 2.09162 16.8411 2.27355C16.0929 1.4864 15.0273 0.996254 13.8468 0.996254C11.5804 0.996254 9.74345 2.80618 9.74345 5.03592C9.74345 5.35147 9.78007 5.66047 9.84953 5.95632C6.43999 5.78792 3.41657 4.17885 1.39291 1.73475C1.03952 2.32994 0.838108 3.02517 0.838108 3.76558C0.838108 5.16841 1.56321 6.40398 2.66277 7.12856C1.99029 7.10616 1.35802 6.92424 0.804574 6.62027V6.67163C0.804574 8.62871 2.21919 10.2609 4.09509 10.6348C3.75166 10.7244 3.38911 10.7762 3.01455 10.7762C2.7495 10.7762 2.49328 10.7491 2.24161 10.7016C2.76427 12.3065 4.279 13.4744 6.07378 13.5092C4.67005 14.5911 2.90022 15.2365 0.978523 15.2365C0.647116 15.2365 0.320723 15.2175 -0.000517964 15.182C1.81579 16.3264 3.9714 16.9958 6.28915 16.9958C13.8361 16.9958 17.9628 10.8407 17.9628 5.50134L17.9493 4.97799C18.7536 4.41099 19.4506 3.69838 19.9999 2.88959C19.2639 3.21133 18.4739 3.42839 17.644 3.52726C18.4913 3.02593 19.1407 2.23298 19.4483 1.29172Z" fill="white"/>
</svg>
