<svg width="29" height="21" viewBox="0 0 29 21" fill="none" xmlns="http://www.w3.org/2000/svg">
<path fill-rule="evenodd" clip-rule="evenodd" d="M28.869 6.32755C28.6988 3.47711 26.2103 1.12299 23.3207 1.08051L19.428 1.02336C16.9895 0.98858 13.0014 0.985107 10.5637 1.02257L6.59011 1.08166C3.69648 1.12338 1.22867 3.48254 1.08813 6.33953L1.0768 6.56974C0.957792 8.99879 0.957792 12.9496 1.0768 15.3779L1.08813 15.6127C1.22822 18.4663 3.69475 20.8339 6.58621 20.8903L10.5685 20.9652C11.7828 20.9884 13.3817 21 14.9818 21C16.5969 21 18.2142 20.9884 19.4399 20.9652L23.325 20.8903C26.212 20.8354 28.6988 18.4728 28.869 15.6243L28.883 15.3852C29.0283 12.9531 29.0283 8.99569 28.883 6.56316L28.869 6.32755ZM27.1188 15.2829L27.1047 15.5212C26.9892 17.4474 25.2428 19.1063 23.2909 19.1425L19.4057 19.2186C16.9855 19.2638 13.025 19.265 10.6031 19.2186L6.62077 19.1425C4.64038 19.1043 2.94963 17.4833 2.85418 15.5281L2.84285 15.2937C2.72557 12.9125 2.72557 9.03623 2.84285 6.65394L2.85373 6.42373C2.94963 4.47014 4.63776 2.85682 6.61725 2.82784L10.5908 2.76915C11.7872 2.75137 13.3607 2.7421 14.9386 2.7421C16.5549 2.7421 18.1752 2.75176 19.4022 2.76954L23.2944 2.82669C25.2783 2.85528 26.987 4.47207 27.1047 6.43029L27.1188 6.6659C27.2605 9.04166 27.2605 12.9067 27.1188 15.2829ZM19.6853 9.94391L12.6916 6.30013C12.4172 6.15684 12.0877 6.16611 11.823 6.32486C11.5583 6.48399 11.3956 6.7671 11.3956 7.07339V14.3609C11.3956 14.6672 11.5579 14.9503 11.823 15.1091C11.9631 15.1925 12.1215 15.2346 12.2799 15.2346C12.4208 15.2346 12.5626 15.201 12.6916 15.1342L19.6853 11.4904C19.9755 11.3394 20.157 11.0416 20.157 10.7171C20.157 10.3935 19.9758 10.0949 19.6853 9.94391ZM13.1634 12.9133V8.51984L17.3785 10.7164L13.1634 12.9133Z" fill="black"/>
<path fill-rule="evenodd" clip-rule="evenodd" d="M28.869 6.32755C28.6988 3.47711 26.2103 1.12299 23.3207 1.08051L19.428 1.02336C16.9895 0.98858 13.0014 0.985107 10.5637 1.02257L6.59011 1.08166C3.69648 1.12338 1.22867 3.48254 1.08813 6.33953L1.0768 6.56974C0.957792 8.99879 0.957792 12.9496 1.0768 15.3779L1.08813 15.6127C1.22822 18.4663 3.69475 20.8339 6.58621 20.8903L10.5685 20.9652C11.7828 20.9884 13.3817 21 14.9818 21C16.5969 21 18.2142 20.9884 19.4399 20.9652L23.325 20.8903C26.212 20.8354 28.6988 18.4728 28.869 15.6243L28.883 15.3852C29.0283 12.9531 29.0283 8.99569 28.883 6.56316L28.869 6.32755ZM27.1188 15.2829L27.1047 15.5212C26.9892 17.4474 25.2428 19.1063 23.2909 19.1425L19.4057 19.2186C16.9855 19.2638 13.025 19.265 10.6031 19.2186L6.62077 19.1425C4.64038 19.1043 2.94963 17.4833 2.85418 15.5281L2.84285 15.2937C2.72557 12.9125 2.72557 9.03623 2.84285 6.65394L2.85373 6.42373C2.94963 4.47014 4.63776 2.85682 6.61725 2.82784L10.5908 2.76915C11.7872 2.75137 13.3607 2.7421 14.9386 2.7421C16.5549 2.7421 18.1752 2.75176 19.4022 2.76954L23.2944 2.82669C25.2783 2.85528 26.987 4.47207 27.1047 6.43029L27.1188 6.6659C27.2605 9.04166 27.2605 12.9067 27.1188 15.2829ZM19.6853 9.94391L12.6916 6.30013C12.4172 6.15684 12.0877 6.16611 11.823 6.32486C11.5583 6.48399 11.3956 6.7671 11.3956 7.07339V14.3609C11.3956 14.6672 11.5579 14.9503 11.823 15.1091C11.9631 15.1925 12.1215 15.2346 12.2799 15.2346C12.4208 15.2346 12.5626 15.201 12.6916 15.1342L19.6853 11.4904C19.9755 11.3394 20.157 11.0416 20.157 10.7171C20.157 10.3935 19.9758 10.0949 19.6853 9.94391ZM13.1634 12.9133V8.51984L17.3785 10.7164L13.1634 12.9133Z" fill="#4DA7FF"/>
</svg>
